Coordinates
version=1
nRows=16
nColumns=40
inDegrees=yes

Units are S.I. units (second, meters, Newtons, ...)
Angles are in degrees.

endheader
time	pelvis_tilt	pelvis_list	pelvis_rotation	pelvis_tx	pelvis_ty	pelvis_tz	hip_flexion_r	hip_adduction_r	hip_rotation_r	knee_angle_r	knee_angle_r_beta	ankle_angle_r	subtalar_angle_r	mtp_angle_r	hip_flexion_l	hip_adduction_l	hip_rotation_l	knee_angle_l	knee_angle_l_beta	ankle_angle_l	subtalar_angle_l	mtp_angle_l	lumbar_extension	lumbar_bending	lumbar_rotation	arm_flex_r	arm_add_r	arm_rot_r	elbow_flex_r	pro_sup_r	wrist_flex_r	wrist_dev_r	arm_flex_l	arm_add_l	arm_rot_l	elbow_flex_l	pro_sup_l	wrist_flex_l	wrist_dev_l
      0.32000000	     -1.89396488	      0.43380803	      3.13355864	     -0.37667880	      0.89240778	     -1.05631921	     24.28147297	     -4.18144095	    -10.08312561	    -64.80779756	     -1.13110945	     -0.11950569	    -17.51391600	     20.39843254	     12.38404002	      0.06107013	      9.60113627	    -28.61604319	     -0.49944417	     12.41635113	      8.51865509	      5.18342709	     -5.79530727	     -3.90535596	     -8.51839690	     -9.53884210	     -9.20326996	     -8.32174593	     33.84516165	     89.95437384	      0.00000000	      0.00000000	     -1.09406777	     14.71353175	     18.52148395	     53.24379046	     89.95437384	      0.00000000	      0.00000000
      0.33000000	     -1.83374997	      0.37702404	      3.44492647	     -0.36601635	      0.89289483	     -1.05787500	     25.28102431	     -4.08639678	    -10.44482077	    -63.24390151	     -1.10381431	      0.63500154	    -17.51620697	     20.28650775	     11.25850126	      0.11264549	      9.80062150	    -28.07640607	     -0.49002573	     12.60387907	      7.83836186	      4.84882677	     -5.91471800	     -3.79919827	     -8.90478428	     -9.66241801	     -9.02645116	     -9.07466429	     32.32087758	     89.95437384	      0.00000000	      0.00000000	     -0.73180733	     15.08832722	     18.61974471	     55.31484673	     89.95437384	      0.00000000	      0.00000000
      0.34000000	     -1.52283346	      0.30735276	      3.79519936	     -0.35509014	      0.89368308	     -1.05944321	     25.81521850	     -3.95376569	    -10.87605938	    -61.21361857	     -1.06837919	      1.39995668	    -17.50907701	     20.36328756	      9.81959192	      0.23470987	     10.15744939	    -27.46534463	     -0.47936069	     12.65529443	      6.88602500	      4.37847060	     -6.30680247	     -3.65472888	     -9.33437603	     -9.77893612	     -8.85339079	     -9.90686753	     30.88338524	     89.95437384	      0.00000000	      0.00000000	     -0.31064287	     15.41694239	     18.84109852	     57.26388587	     89.95437384	      0.00000000	      0.00000000
      0.35000000	     -1.11300047	      0.11962108	      3.97365893	     -0.34392959	      0.89441779	     -1.06056953	     26.14486963	     -3.59759401	    -11.19599792	    -58.96448019	     -1.02912432	      2.18977556	    -17.54315395	     20.96386428	      8.27892247	      0.64730934	     10.94794814	    -26.91413658	     -0.46974030	     12.51437110	      5.31343880	      3.06538302	     -6.77106302	     -3.36835803	     -9.47822224	    -10.05224729	     -8.79814794	    -10.52803383	     29.81506101	     89.95437384	      0.00000000	      0.00000000	      0.17261745	     15.79899327	     18.74177072	     59.14356021	     89.95437384	      0.00000000	      0.00000000
      0.36000000	     -1.05642968	     -0.00085550	      4.44095531	     -0.33345560	      0.89443238	     -1.06209024	     26.82220667	     -3.49174002	    -11.73271316	    -56.55153572	     -0.98701050	      2.83433983	    -17.54133836	     21.11467649	      7.33679931	      0.76629160	     10.91901143	    -26.60582948	     -0.46435932	     12.70321243	      4.84727998	      2.45935962	     -6.91577962	     -3.15848364	    -10.00783448	    -10.17331299	     -8.68641932	    -11.25766861	     28.54951458	     89.95437384	      0.00000000	      0.00000000	      0.59241578	     16.16110320	     18.82757775	     61.01164116	     89.95437384	      0.00000000	      0.00000000
      0.37000000	     -0.91144163	     -0.05694038	      4.72885322	     -0.32259868	      0.89441273	     -1.06330811	     27.27751891	     -3.36700298	    -12.06805190	    -53.83140988	     -0.93953534	      3.50014865	    -17.47074422	     21.23749050	      6.18033861	      0.86432468	     11.08383098	    -26.16068141	     -0.45659003	     12.76255635	      4.39309673	      1.89328396	     -7.12413161	     -3.02829978	    -10.31757610	    -10.43423945	     -8.64871438	    -11.80000816	     27.57021623	     89.95437384	      0.00000000	      0.00000000	      1.01924977	     16.56037505	     18.79989270	     62.83673476	     89.95437384	      0.00000000	      0.00000000
      0.38000000	     -1.02715647	     -0.01270020	      4.95686148	     -0.31196555	      0.89387449	     -1.06439617	     27.99682620	     -3.35403094	    -12.27427388	    -51.04006285	     -0.89081715	      4.02828518	    -17.38409287	     21.19350924	      5.35339128	      0.79709498	     11.14205335	    -25.79491982	     -0.45020628	     12.97809216	      4.08581309	      1.61701115	     -7.06958484	     -3.03384993	    -10.57692489	    -10.69248543	     -8.61561316	    -12.23541411	     26.57907121	     89.95437384	      0.00000000	      0.00000000	      1.41573287	     17.04548474	     18.57242614	     64.54457381	     89.95437384	      0.00000000	      0.00000000
      0.39000000	     -0.61692916	     -0.16393030	      5.29405084	     -0.30081309	      0.89413146	     -1.06536444	     27.82854262	     -3.15620156	    -12.84423164	    -47.75764991	     -0.83352823	      4.14668631	    -17.13168445	     21.36691314	      3.93341617	      1.11298828	     11.39872864	    -25.41749496	     -0.44361897	     12.90486304	      3.33663266	      0.92843822	     -7.56422168	     -2.77056062	    -10.87966062	    -10.93943256	     -8.53106209	    -12.98962463	     25.70570731	     89.95437384	      0.00000000	      0.00000000	      1.96371336	     17.38360648	     18.58170420	     66.09538247	     89.95437384	      0.00000000	      0.00000000
      0.40000000	     -0.61552775	     -0.14560743	      5.59027766	     -0.28999632	      0.89360271	     -1.06631630	     28.13537781	     -3.14109365	    -13.13962698	    -44.48239778	     -0.77636430	      4.09845119	    -16.83085660	     21.37344284	      3.03432886	      1.16423177	     11.51078382	    -25.18728792	     -0.43960110	     13.05037709	      2.92543438	      0.50059360	     -7.62724679	     -2.73252627	    -11.24980883	    -11.09150537	     -8.48726774	    -13.41948148	     24.72231076	     89.95437384	      0.00000000	      0.00000000	      2.37326234	     17.78091579	     18.61504876	     67.61043120	     89.95437384	      0.00000000	      0.00000000
      0.41000000	     -0.52827066	     -0.12185904	      5.93947138	     -0.27921023	      0.89314940	     -1.06722494	     28.19892077	     -3.16078199	    -13.56171547	    -41.01426548	     -0.71583397	      4.06749256	    -16.34807771	     21.28488727	      2.06939577	      1.26278946	     11.60808988	    -25.00865497	     -0.43648337	     13.01691614	      2.36634736	     -0.07963274	     -7.82678129	     -2.68170294	    -11.60641831	    -11.36641289	     -8.42245277	    -13.94163221	     24.04281780	     89.95437384	      0.00000000	      0.00000000	      2.88118893	     18.18193167	     18.58733246	     69.01580892	     89.95437384	      0.00000000	      0.00000000
      0.42000000	     -0.59427484	     -0.06365472	      6.24526140	     -0.26827132	      0.89241594	     -1.06809800	     28.38321493	     -3.22818796	    -13.96110317	    -37.48131560	     -0.65417237	      4.20661214	    -15.60772548	     21.07197881	      1.29286241	      1.31175456	     11.72044066	    -24.87818868	     -0.43420630	     13.00712627	      1.88063610	     -0.57886219	     -7.82313630	     -2.68211489	    -11.95378951	    -11.59782338	     -8.39310257	    -14.33514479	     23.31681175	     89.95437384	      0.00000000	      0.00000000	      3.31272572	     18.53404361	     18.56085972	     70.26611964	     89.95437384	      0.00000000	      0.00000000
      0.43000000	     -0.72973648	      0.00929419	      6.62677157	     -0.25755343	      0.89148416	     -1.06902165	     28.63420449	     -3.35369762	    -14.32805352	    -34.10989217	     -0.59532993	      4.39753314	    -14.55461657	     20.68898521	      0.67383854	      1.35952313	     11.72288344	    -24.86002453	     -0.43388928	     12.85649389	      1.31953006	     -1.06132330	     -7.78413784	     -2.68345352	    -12.37732994	    -11.83340108	     -8.35234216	    -14.83965047	     22.67648250	     89.95437384	      0.00000000	      0.00000000	      3.72891952	     18.87204879	     18.58038168	     71.48709685	     89.95437384	      0.00000000	      0.00000000
      0.44000000	     -1.20875745	      0.38883841	      6.92404897	     -0.24710627	      0.88996675	     -1.06982156	     29.33685628	     -3.81930668	    -14.55416421	    -31.03579009	     -0.54167672	      4.73652870	    -13.58244587	     20.37359660	      0.47350553	      0.99773403	     11.73825076	    -24.94961494	     -0.43545293	     12.78710744	      1.09259687	     -1.21769353	     -7.40302263	     -3.08349990	    -12.73386229	    -12.26238959	     -8.31588867	    -14.96251755	     22.41471107	     89.95437384	      0.00000000	      0.00000000	      4.16611256	     19.31204656	     18.45460453	     72.49119385	     89.95437384	      0.00000000	      0.00000000
      0.45000000	     -1.17848758	      0.22583243	      7.42100570	     -0.23613424	      0.88928972	     -1.07065094	     29.23748720	     -3.83690553	    -15.63860564	    -27.82620558	     -0.48565891	      5.15403549	    -11.77543831	     19.60983358	     -0.15667137	      1.38230181	     11.54825089	    -25.21300616	     -0.44004997	     12.64355411	      0.65915524	     -1.78161878	     -7.52204946	     -2.78694356	    -13.23066436	    -12.36864704	     -8.28156410	    -15.52454379	     21.72948349	     89.95437384	      0.00000000	      0.00000000	      4.57214511	     19.48911725	     18.63491233	     73.48144320	     89.95437384	      0.00000000	      0.00000000
      0.46000000	     -1.43903882	      0.33873440	      7.84763445	     -0.22526367	      0.88806860	     -1.07144105	     29.62291444	     -4.22495652	    -16.72906950	    -25.23745484	     -0.44047668	      5.70553780	     -9.85638884	     18.39439793	     -0.46953816	      1.43986161	     11.48334152	    -25.50376844	     -0.44512473	     12.37911379	      0.08393936	     -2.57999407	     -7.31698993	     -2.82381971	    -13.68216127	    -12.66134237	     -8.25123473	    -15.89630431	     21.39762275	     89.95437384	      0.00000000	      0.00000000	      4.96311030	     19.79288604	     18.58400363	     74.22804111	     89.95437384	      0.00000000	      0.00000000
      0.47000000	     -1.78053686	      0.55150421	      8.27101732	     -0.21428784	      0.88669975	     -1.07222341	     30.11557100	     -4.77252333	    -18.03213254	    -22.99705876	     -0.40137439	      5.58958087	     -8.14513281	     13.16437772	     -0.70148351	      1.29323101	     11.05820014	    -25.74270369	     -0.44929494	     11.70915186	      0.59138287	     -7.14397007	     -7.00517905	     -2.98259156	    -14.10742014	    -12.97157404	     -8.21278387	    -16.27523338	     21.12443022	     89.95437384	      0.00000000	      0.00000000	      5.34171249	     20.02651381	     18.54203552	     74.80899761	     89.95437384	      0.00000000	      0.00000000
